<?xml version="1.0" standalone="no"?>
<!DOCTYPE svg PUBLIC "-//W3C//DTD SVG 20010904//EN"
 "http://www.w3.org/TR/2001/REC-SVG-20010904/DTD/svg10.dtd">
<svg version="1.0" xmlns="http://www.w3.org/2000/svg"
 width="512.000000pt" height="512.000000pt" viewBox="0 0 512.000000 512.000000"
 preserveAspectRatio="xMidYMid meet">
<metadata>
Created by potrace 1.14, written by Peter Selinger 2001-2017
</metadata>
<g transform="translate(0.000000,512.000000) scale(0.100000,-0.100000)"
fill="#000000" stroke="none">
<path d="M2180 3831 c0 -1129 -2 -1290 -15 -1301 -8 -7 -12 -17 -9 -22 4 -7 0
-7 -12 -1 -11 5 -59 8 -109 7 -49 -2 -97 -3 -107 -4 -25 0 -113 -74 -147 -124
l-31 -45 0 -551 c0 -352 4 -549 10 -545 16 10 11 -2 -7 -16 -9 -8 -14 -9 -10
-2 5 8 -2 10 -25 8 -18 -2 -270 -4 -560 -4 l-526 -1 -50 -40 c-28 -21 -65 -60
-82 -85 -30 -44 -31 -47 -29 -156 1 -86 -2 -114 -13 -126 -13 -12 -54 -14
-237 -13 l-221 1 0 -406 0 -405 2560 0 2560 0 0 616 0 615 -142 -3 c-170 -4
-210 -17 -243 -83 -18 -36 -21 -66 -25 -280 l-5 -241 -33 -52 c-38 -59 -81
-99 -147 -137 l-45 -27 -45 27 c-66 38 -109 78 -147 137 l-33 52 -5 266 c-6
275 -10 303 -53 339 -21 17 -118 35 -149 28 -31 -8 -121 -87 -160 -141 l-28
-39 0 -216 0 -216 -31 -53 c-35 -62 -95 -123 -155 -158 l-43 -25 -41 21 c-55
28 -122 90 -159 149 l-31 48 0 221 0 221 -47 62 c-42 55 -130 129 -153 129
-23 0 -111 -74 -152 -129 l-48 -62 0 -221 0 -221 -31 -48 c-37 -59 -104 -121
-158 -149 -41 -20 -43 -20 -164 -5 -67 9 -158 23 -202 30 -53 10 -155 15 -301
15 l-221 0 -39 29 c-21 16 -53 44 -70 62 -67 73 -64 57 -64 359 0 213 3 280
13 294 11 15 29 19 93 20 68 2 87 6 129 30 73 43 129 99 164 165 l32 60 -1
507 c-1 278 1 509 5 512 3 3 42 6 88 7 69 1 91 6 135 29 71 36 134 101 171
175 l31 60 0 854 0 854 30 41 c16 23 52 59 80 81 48 38 52 39 125 39 51 0 78
-5 86 -14 7 -9 11 -44 10 -87 -2 -67 1 -77 29 -115 33 -47 91 -92 160 -125 44
-21 55 -22 483 -25 l438 -3 71 38 c40 21 98 63 129 93 56 55 57 57 61 119 1
35 -1 65 -5 68 -4 3 -4 10 2 16 5 7 10 15 10 20 1 4 3 6 4 5 2 -2 11 3 19 9 8
7 18 10 22 6 3 -4 29 -6 56 -4 37 2 59 -3 85 -19 51 -32 133 -126 144 -167 6
-19 22 -120 37 -224 l27 -188 -27 -44 c-45 -77 -107 -130 -228 -193 -82 -42
-131 -76 -177 -120 l-64 -62 23 -32 c34 -48 112 -105 220 -161 117 -59 173
-107 219 -183 l34 -57 -29 -192 c-15 -106 -30 -233 -34 -284 -3 -51 -10 -97
-17 -104 -7 -7 -44 -12 -86 -13 -67 -1 -80 -4 -119 -32 -52 -39 -99 -105 -128
-181 -21 -56 -21 -68 -18 -513 4 -506 5 -518 66 -553 51 -30 149 -34 198 -9
104 53 104 52 104 725 -1 436 -3 556 -13 550 -7 -4 -7 -1 2 10 14 18 26 23 16
8 -3 -5 9 -8 27 -6 18 2 124 4 236 4 l202 1 0 1255 0 1255 -405 0 -406 0 1
-221 c1 -173 -2 -225 -12 -235 -11 -11 -139 -14 -686 -15 -371 0 -676 2 -679
5 -4 3 -2 6 3 6 5 0 8 95 6 230 l-3 230 -379 0 -380 0 0 -1289z m2135 820 c-3
-6 -11 -11 -17 -11 -6 0 -6 6 2 15 14 17 26 13 15 -4z m-2130 -2130 c-3 -6
-11 -11 -17 -11 -6 0 -6 6 2 15 14 17 26 13 15 -4z m-1710 -1710 c-3 -6 -11
-11 -17 -11 -6 0 -6 6 2 15 14 17 26 13 15 -4z m19 -3 c-6 -10 -5 -10 8 -1 8
7 17 10 20 7 3 -3 128 -5 276 -4 l271 1 53 -44 c29 -24 66 -62 82 -85 l30 -42
-30 -42 c-16 -23 -53 -61 -82 -85 l-53 -43 -212 0 c-236 0 -224 -3 -305 74
-66 63 -84 97 -81 156 2 27 0 53 -4 56 -4 4 -1 14 6 22 10 13 9 14 -3 7 -9 -5
-8 0 4 13 21 24 31 29 20 10z"/>
<path d="M3140 3803 c-68 -29 -130 -75 -166 -124 l-36 -49 22 -35 c33 -53 104
-110 174 -140 l63 -27 60 30 c71 37 153 99 183 142 l23 32 -64 61 c-64 62
-171 128 -205 126 -11 0 -35 -7 -54 -16z"/>
</g>
</svg>
